<svg width="172" height="60" viewBox="0 0 172 60" fill="none" xmlns="http://www.w3.org/2000/svg">
<path d="M11.6764 54.8547C11.6764 55.2725 11.6006 55.6263 11.449 55.9161C11.2973 56.1991 11.0929 56.4282 10.8358 56.6034C10.5787 56.7787 10.282 56.9067 9.94575 56.9876C9.60951 57.0684 9.26008 57.1089 8.89747 57.1089H8.05687V59.8078H6.36577V52.651H8.93703C9.31942 52.651 9.67544 52.6915 10.0051 52.7723C10.3413 52.8465 10.6314 52.9711 10.8754 53.1464C11.1259 53.3148 11.3204 53.5406 11.4588 53.8236C11.6039 54.0999 11.6764 54.4436 11.6764 54.8547ZM9.98531 54.8648C9.98531 54.6963 9.95235 54.5582 9.88642 54.4503C9.82049 54.3425 9.73148 54.2583 9.6194 54.1976C9.50732 54.137 9.37876 54.0966 9.23371 54.0763C9.09526 54.0561 8.95021 54.046 8.79858 54.046H8.05687V55.7341H8.76891C8.92714 55.7341 9.07878 55.7206 9.22382 55.6937C9.36887 55.6667 9.49743 55.6196 9.60951 55.5522C9.72819 55.4848 9.82049 55.3972 9.88642 55.2893C9.95235 55.1748 9.98531 55.0333 9.98531 54.8648Z" fill="white"/>
<path d="M15.1639 59.8078V52.651H16.8649V58.3017H19.5746V59.8078H15.1639Z" fill="white"/>
<path d="M27.5887 59.8078L27.0448 58.4027H24.3351L23.8208 59.8078H21.9814L24.9186 52.651H26.5602L29.4677 59.8078H27.5887ZM25.7097 54.5615L24.8197 57.0179H26.58L25.7097 54.5615Z" fill="white"/>
<path d="M35.3316 56.7753V59.8078H33.6405V56.7753L31.0099 52.651H33.057L34.5503 55.2995L36.0437 52.651H38.0215L35.3316 56.7753Z" fill="white"/>
<path d="M42.0052 58.9183C42.0052 59.2013 41.9063 59.4372 41.7085 59.6259C41.5173 59.8146 41.2866 59.9089 41.0163 59.9089C40.8778 59.9089 40.746 59.8819 40.6207 59.828C40.502 59.7809 40.3965 59.7135 40.3042 59.6259C40.2119 59.5383 40.1394 59.4372 40.0867 59.3226C40.0339 59.2013 40.0076 59.0699 40.0076 58.9284C40.0076 58.7936 40.0339 58.6656 40.0867 58.5443C40.1394 58.423 40.2119 58.3185 40.3042 58.2309C40.3965 58.1366 40.502 58.0624 40.6207 58.0085C40.746 57.9546 40.8778 57.9277 41.0163 57.9277C41.2866 57.9277 41.5173 58.022 41.7085 58.2107C41.9063 58.3994 42.0052 58.6352 42.0052 58.9183Z" fill="white"/>
<path d="M50.3275 59.8078V52.651H55.0349V54.1168H51.9593V55.4612H54.8668V56.846H51.9593V58.332H55.2129V59.8078H50.3275Z" fill="white"/>
<path d="M63.5539 59.8078L63.01 58.4027H60.3003L59.786 59.8078H57.9466L60.8837 52.651H62.5254L65.4329 59.8078H63.5539ZM61.6749 54.5615L60.7848 57.0179H62.5452L61.6749 54.5615Z" fill="white"/>
<path d="M72.2321 59.8078L70.719 56.9673H70.1454V59.8078H68.4839V52.651H71.1541C71.4903 52.651 71.8167 52.6881 72.1332 52.7622C72.4562 52.8296 72.743 52.9476 72.9935 53.116C73.2507 53.2845 73.455 53.5069 73.6067 53.7832C73.7583 54.0595 73.8341 54.4032 73.8341 54.8143C73.8341 55.2995 73.7056 55.7072 73.4485 56.0374C73.1913 56.3676 72.8353 56.6034 72.3804 56.745L74.2099 59.8078H72.2321ZM72.1628 54.8446C72.1628 54.6761 72.1266 54.5413 72.054 54.4402C71.9881 54.3324 71.8991 54.2515 71.787 54.1976C71.6815 54.137 71.5596 54.0966 71.4211 54.0763C71.2893 54.0561 71.1607 54.046 71.0354 54.046H70.1355V55.7139H70.9365C71.075 55.7139 71.2167 55.7038 71.3618 55.6836C71.5068 55.6566 71.6387 55.6128 71.7574 55.5522C71.876 55.4915 71.9716 55.4039 72.0442 55.2893C72.1233 55.1748 72.1628 55.0265 72.1628 54.8446Z" fill="white"/>
<path d="M81.9641 59.8078L79.1456 55.1276H79.116L79.1555 59.8078H77.5139V52.651H79.4423L82.2509 57.3211H82.2806L82.241 52.651H83.8827V59.8078H81.9641Z" fill="white"/>
<path d="M89.5596 58.9183C89.5596 59.2013 89.4607 59.4372 89.2629 59.6259C89.0717 59.8146 88.841 59.9089 88.5707 59.9089C88.4322 59.9089 88.3004 59.8819 88.1751 59.828C88.0564 59.7809 87.9509 59.7135 87.8586 59.6259C87.7663 59.5383 87.6938 59.4372 87.6411 59.3226C87.5883 59.2013 87.562 59.0699 87.562 58.9284C87.562 58.7936 87.5883 58.6656 87.6411 58.5443C87.6938 58.423 87.7663 58.3185 87.8586 58.2309C87.9509 58.1366 88.0564 58.0624 88.1751 58.0085C88.3004 57.9546 88.4322 57.9277 88.5707 57.9277C88.841 57.9277 89.0717 58.022 89.2629 58.2107C89.4607 58.3994 89.5596 58.6352 89.5596 58.9183Z" fill="white"/>
<path d="M104.043 58.8172C103.733 59.1811 103.351 59.4709 102.896 59.6865C102.441 59.8954 101.917 59.9999 101.323 59.9999C100.783 59.9999 100.282 59.9089 99.8203 59.727C99.3653 59.545 98.9698 59.2889 98.6335 58.9587C98.2973 58.6218 98.0336 58.2208 97.8424 57.7558C97.6512 57.2908 97.5556 56.7787 97.5556 56.2193C97.5556 55.6465 97.6512 55.1276 97.8424 54.6626C98.0401 54.1976 98.3105 53.8034 98.6533 53.4799C98.9961 53.1497 99.3983 52.897 99.8598 52.7218C100.321 52.5466 100.819 52.459 101.353 52.459C101.848 52.459 102.332 52.55 102.807 52.7319C103.288 52.9071 103.677 53.1666 103.974 53.5103L102.827 54.6828C102.668 54.4605 102.461 54.2954 102.204 54.1875C101.946 54.0797 101.683 54.0258 101.412 54.0258C101.116 54.0258 100.842 54.0831 100.592 54.1976C100.348 54.3055 100.137 54.4571 99.9587 54.6525C99.7807 54.8479 99.6422 55.0804 99.5434 55.35C99.4445 55.6128 99.395 55.9026 99.395 56.2193C99.395 56.5428 99.4445 56.8393 99.5434 57.1089C99.6422 57.3784 99.7774 57.6109 99.9488 57.8063C100.127 57.995 100.338 58.1433 100.582 58.2511C100.826 58.3589 101.093 58.4129 101.383 58.4129C101.719 58.4129 102.012 58.3455 102.263 58.2107C102.513 58.0759 102.715 57.9007 102.866 57.685L104.043 58.8172Z" fill="white"/>
<path d="M114.423 56.1991C114.423 56.7652 114.327 57.2841 114.136 57.7558C113.945 58.2208 113.678 58.6218 113.335 58.9587C112.999 59.2889 112.596 59.545 112.128 59.727C111.66 59.9089 111.153 59.9999 110.605 59.9999C110.058 59.9999 109.551 59.9089 109.082 59.727C108.621 59.545 108.219 59.2889 107.876 58.9587C107.54 58.6218 107.276 58.2208 107.085 57.7558C106.894 57.2841 106.798 56.7652 106.798 56.1991C106.798 55.6263 106.894 55.1108 107.085 54.6525C107.276 54.1875 107.54 53.7933 107.876 53.4698C108.219 53.1464 108.621 52.897 109.082 52.7218C109.551 52.5466 110.058 52.459 110.605 52.459C111.153 52.459 111.66 52.5466 112.128 52.7218C112.596 52.897 112.999 53.1464 113.335 53.4698C113.678 53.7933 113.945 54.1875 114.136 54.6525C114.327 55.1108 114.423 55.6263 114.423 56.1991ZM112.613 56.1991C112.613 55.8891 112.564 55.5993 112.465 55.3298C112.366 55.0602 112.227 54.8311 112.049 54.6424C111.878 54.447 111.667 54.2954 111.416 54.1875C111.172 54.073 110.902 54.0157 110.605 54.0157C110.309 54.0157 110.038 54.073 109.794 54.1875C109.551 54.2954 109.34 54.447 109.162 54.6424C108.984 54.8311 108.845 55.0602 108.746 55.3298C108.654 55.5993 108.608 55.8891 108.608 56.1991C108.608 56.5226 108.657 56.8225 108.756 57.0988C108.855 57.3683 108.99 57.6008 109.162 57.7962C109.34 57.9917 109.551 58.1467 109.794 58.2612C110.038 58.3691 110.309 58.423 110.605 58.423C110.902 58.423 111.172 58.3691 111.416 58.2612C111.66 58.1467 111.871 57.9917 112.049 57.7962C112.227 57.6008 112.366 57.3683 112.465 57.0988C112.564 56.8225 112.613 56.5226 112.613 56.1991Z" fill="white"/>
<path d="M122.459 59.8078L119.64 55.1276H119.611L119.65 59.8078H118.009V52.651H119.937L122.746 57.3211H122.775L122.736 52.651H124.377V59.8078H122.459Z" fill="white"/>
<path d="M132.744 59.8078L129.926 55.1276H129.896L129.936 59.8078H128.294V52.651H130.222L133.031 57.3211H133.061L133.021 52.651H134.663V59.8078H132.744Z" fill="white"/>
<path d="M138.579 59.8078V52.651H143.287V54.1168H140.211V55.4612H143.119V56.846H140.211V58.332H143.465V59.8078H138.579Z" fill="white"/>
<path d="M153.22 58.8172C152.91 59.1811 152.528 59.4709 152.073 59.6865C151.618 59.8954 151.094 59.9999 150.5 59.9999C149.96 59.9999 149.459 59.9089 148.997 59.727C148.542 59.545 148.147 59.2889 147.81 58.9587C147.474 58.6218 147.21 58.2208 147.019 57.7558C146.828 57.2908 146.732 56.7787 146.732 56.2193C146.732 55.6465 146.828 55.1276 147.019 54.6626C147.217 54.1976 147.487 53.8034 147.83 53.4799C148.173 53.1497 148.575 52.897 149.037 52.7218C149.498 52.5466 149.996 52.459 150.53 52.459C151.024 52.459 151.509 52.55 151.984 52.7319C152.465 52.9071 152.854 53.1666 153.151 53.5103L152.004 54.6828C151.845 54.4605 151.638 54.2954 151.38 54.1875C151.123 54.0797 150.86 54.0258 150.589 54.0258C150.293 54.0258 150.019 54.0831 149.769 54.1976C149.525 54.3055 149.314 54.4571 149.136 54.6525C148.958 54.8479 148.819 55.0804 148.72 55.35C148.621 55.6128 148.572 55.9026 148.572 56.2193C148.572 56.5428 148.621 56.8393 148.72 57.1089C148.819 57.3784 148.954 57.6109 149.126 57.8063C149.304 57.995 149.515 58.1433 149.759 58.2511C150.003 58.3589 150.27 58.4129 150.56 58.4129C150.896 58.4129 151.189 58.3455 151.44 58.2107C151.69 58.0759 151.891 57.9007 152.043 57.685L153.22 58.8172Z" fill="white"/>
<path d="M159.356 54.1269V59.8078H157.665V54.1269H155.687V52.651H161.334V54.1269H159.356Z" fill="white"/>
<path d="M165.566 58.9183C165.566 59.2013 165.467 59.4372 165.269 59.6259C165.078 59.8146 164.847 59.9089 164.577 59.9089C164.438 59.9089 164.306 59.8819 164.181 59.828C164.062 59.7809 163.957 59.7135 163.865 59.6259C163.772 59.5383 163.7 59.4372 163.647 59.3226C163.594 59.2013 163.568 59.0699 163.568 58.9284C163.568 58.7936 163.594 58.6656 163.647 58.5443C163.7 58.423 163.772 58.3185 163.865 58.2309C163.957 58.1366 164.062 58.0624 164.181 58.0085C164.306 57.9546 164.438 57.9277 164.577 57.9277C164.847 57.9277 165.078 58.022 165.269 58.2107C165.467 58.3994 165.566 58.6352 165.566 58.9183Z" fill="white"/>
<path d="M18.0217 2.77912H25.7216V28.5368C25.7216 30.1298 25.4892 31.5871 25.0246 32.875C24.5931 34.0951 23.8962 35.1796 23.0001 36.0947C22.1371 36.9759 21.0751 37.6537 19.8139 38.1282C18.5527 38.5688 17.1256 38.806 15.5657 38.806H13.7071C12.1472 38.806 10.7533 38.5688 9.49209 38.1282C8.29728 37.6876 7.20204 37.0098 6.30593 36.0947C5.40983 35.1796 4.74604 34.0612 4.31458 32.875C3.84994 31.5871 3.61761 30.1636 3.61761 28.5368V2.77912H11.3175V28.5368C11.3175 29.6553 11.5498 30.4687 12.0145 30.9093C12.4791 31.316 13.2425 31.5193 14.3377 31.5193H14.9683C16.0635 31.5193 16.8269 31.316 17.2583 30.9093C17.7562 30.4687 17.9885 29.6892 17.9885 28.5368L18.0217 2.77912ZM45.7902 20.5723C46.454 20.5723 46.9518 20.5045 47.3501 20.4028C47.7484 20.2673 48.0471 20.0978 48.2794 19.8267C48.4785 19.5555 48.6445 19.1827 48.7108 18.776C48.7772 18.2676 48.8436 17.7254 48.8104 17.1831V13.4889C48.8104 12.9466 48.7772 12.4383 48.7108 11.896C48.6113 11.4554 48.4785 11.1165 48.2794 10.8454C48.0471 10.5742 47.7484 10.3709 47.3501 10.2692C46.9518 10.1336 46.454 10.0997 45.7902 10.0997H42.1394V20.5723H45.7902ZM34.4395 38.2977V2.77912H46.4208C49.7065 2.77912 52.2289 3.72809 53.9547 5.62603C55.6806 7.49007 56.5103 10.0997 56.5103 13.4889V17.1153C56.5103 20.5045 55.6474 23.1142 53.9547 24.9782C52.1957 26.8761 49.7065 27.8251 46.4208 27.8251H42.1394V38.3316H34.4395V38.2977ZM71.0272 31.0448H82.4442V38.2977H63.3273V2.77912H71.0272V31.0448ZM98.5542 25.1138H102.504L100.512 14.4379L98.5542 25.1138ZM104.296 32.3666H96.7952L95.368 38.2977H87.4358L96.8947 2.77912H104.196L113.655 38.2977H105.756L104.296 32.3666ZM133.208 19.8944V2.77912H140.908V38.2977H133.506L126.503 21.1823V38.2977H118.804V2.77912H126.205L133.208 19.8944ZM149.351 2.77912H160.403C163.888 2.77912 166.576 3.59252 168.435 5.18544C170.459 6.91391 171.455 9.52358 171.455 13.0483V28.0285C171.455 31.5532 170.459 34.1629 168.435 35.8913C166.576 37.4843 163.888 38.2977 160.403 38.2977H149.351V2.77912ZM157.051 10.0658V31.0448H160.403C160.901 31.0448 161.398 31.0109 161.896 30.9432C162.328 30.8754 162.693 30.7398 162.958 30.5365C163.224 30.2992 163.423 29.9942 163.556 29.6214C163.688 29.2147 163.755 28.7063 163.755 28.0962V13.0144C163.755 12.3705 163.688 11.8621 163.556 11.4893C163.423 11.1504 163.224 10.8115 162.958 10.5742C162.693 10.3709 162.328 10.2353 161.896 10.1675C161.398 10.0997 160.901 10.032 160.403 10.0658H157.051ZM25.7216 2.77912L21.6393 0H14.4373L18.0217 2.77912H25.7216ZM11.2843 2.77912L7.69987 0H0L3.58442 2.77912H11.2843ZM71.0272 2.77912L67.4427 0H59.7429L63.3273 2.77912H71.0272ZM63.3273 38.2977L59.7429 35.5185H65.385L63.3273 38.2977ZM82.4442 31.0448L78.8598 28.2657H71.0272V31.0448H82.4442ZM34.4395 38.2977L30.8551 35.5185L38.4554 35.4508L34.4395 38.2977ZM87.4026 38.2977L83.8182 35.5185L91.7504 35.4508L87.4026 38.2977ZM105.756 38.2977L102.172 35.5185L110.038 35.4508L105.756 38.2977ZM104.196 2.77912L100.612 0H93.3103L96.8947 2.77912H104.196ZM118.77 38.2977L115.186 35.5185L122.886 35.4508L118.77 38.2977ZM118.77 2.77912L115.186 0H122.587L126.172 2.77912H118.77ZM133.208 2.77912L129.623 0H137.323L140.908 2.77912H133.208ZM133.506 38.2977L129.922 35.5185L137.323 35.4508L133.506 38.2977ZM149.351 38.2977L145.766 35.5185H155.258L149.351 38.2977ZM49.607 2.13518L52.9259 4.71095L48.8436 2.98247L49.607 2.13518ZM7.20204 36.8742L2.88745 33.4511H6.63782L7.20204 36.8742ZM164.585 2.20296L167.538 4.54149L164.585 3.2875" fill="black"/>
<path d="M14.3709 0H22.0708V25.7577C22.0708 27.3506 21.8384 28.808 21.3738 30.0959C20.9423 31.316 20.2454 32.4005 19.3493 33.3156C18.4863 34.1968 17.4243 34.8746 16.1963 35.3491C14.9351 35.7897 13.508 36.0269 11.9481 36.0269H10.0895C8.5296 36.0269 7.13566 35.7897 5.87447 35.3491C4.67966 34.9085 3.58442 34.2306 2.68832 33.3156C1.79221 32.4005 1.12843 31.2821 0.696971 30.0959C0.232324 28.808 0 27.3845 0 25.7577V0H7.69987V25.7916C7.69987 26.91 7.9322 27.7234 8.39685 28.164C8.86149 28.5707 9.62484 28.7741 10.7201 28.7741H11.3507C12.4459 28.7741 13.2093 28.5707 13.6407 28.164C14.1386 27.7234 14.3709 26.9439 14.3709 25.7916V0ZM42.1726 17.7593C42.8364 17.7593 43.3342 17.6915 43.7325 17.5898C44.1308 17.4542 44.4295 17.2848 44.6618 17.0136C44.8609 16.7425 45.0269 16.3697 45.0932 15.963C45.1596 15.4207 45.226 14.9124 45.1928 14.3701V10.7098C45.1928 10.1675 45.1596 9.65914 45.0932 9.11687C44.9937 8.67628 44.8609 8.33736 44.6618 8.06623C44.4295 7.7951 44.1308 7.59175 43.7325 7.49007C43.3342 7.3545 42.8364 7.32061 42.1726 7.32061H38.5218V17.827L42.1726 17.7593ZM30.7887 35.5185V0H42.77C46.0557 0 48.5781 0.948968 50.3039 2.8469C52.0298 4.71095 52.8595 7.32061 52.8595 10.7098V14.3362C52.8595 17.7254 51.9966 20.335 50.3039 22.1991C48.5449 24.097 46.0557 25.046 42.77 25.046H38.4886V35.5524H30.7887V35.5185ZM67.4096 28.2318H78.8266V35.4846H59.7097V0H67.4096V28.2318ZM94.9366 22.3008H98.8861L96.9279 11.6249L94.9366 22.3008ZM100.645 29.5875H93.1444L91.7172 35.5185H83.785L93.2771 0H100.579L110.038 35.5185H102.139L100.645 29.5875ZM129.59 17.0814V0H137.29V35.5185H129.889L122.886 18.4032V35.5185H115.186V0H122.587L129.59 17.0814ZM145.733 0H156.785C160.27 0 162.958 0.813402 164.817 2.40631C166.841 4.13479 167.837 6.74445 167.837 10.2692V25.2493C167.837 28.7741 166.841 31.3837 164.817 33.1122C162.958 34.7051 160.27 35.5185 156.785 35.5185H145.733V0ZM153.433 7.25283V28.2318H156.785C157.283 28.2318 157.781 28.1979 158.279 28.1301C158.71 28.0623 159.075 27.9268 159.341 27.7234C159.606 27.4862 159.805 27.1812 159.938 26.8084C160.071 26.4017 160.137 25.8933 160.137 25.2832V10.2353C160.137 9.59136 160.071 9.08298 159.938 8.71017C159.805 8.37126 159.606 8.03234 159.341 7.7951C159.075 7.59175 158.71 7.45618 158.279 7.3884C157.781 7.32061 157.283 7.25283 156.785 7.28672H153.433V7.25283Z" fill="white"/>
</svg>
